<?xml version="1.0" standalone="no"?>
<!DOCTYPE svg PUBLIC "-//W3C//DTD SVG 20010904//EN"
 "http://www.w3.org/TR/2001/REC-SVG-20010904/DTD/svg10.dtd">
<svg version="1.0" xmlns="http://www.w3.org/2000/svg"
 width="797.000000pt" height="797.000000pt" viewBox="0 0 797.000000 797.000000"
 preserveAspectRatio="xMidYMid meet">

<g transform="translate(0.000000,797.000000) scale(0.100000,-0.100000)"
fill="#000000" stroke="none">
<path d="M3065 7939 c-438 -22 -857 -155 -1240 -392 -224 -139 -522 -407 -678
-608 -328 -426 -508 -896 -553 -1444 -6 -76 -9 -85 -64 -170 -242 -380 -403
-811 -472 -1265 -20 -137 -23 -190 -23 -460 1 -327 13 -449 70 -700 112 -496
354 -979 680 -1358 555 -645 1289 -1027 2134 -1112 133 -13 459 -13 592 0 833
83 1583 471 2118 1095 309 360 537 789 660 1240 39 144 91 414 91 476 0 18 5
29 14 29 32 0 401 -270 587 -429 l103 -89 351 357 c192 196 389 397 437 446
l87 90 -62 55 c-425 382 -1023 782 -1514 1011 -57 27 -103 51 -103 54 0 3 54
113 120 245 66 132 120 242 120 245 0 17 -259 125 -505 210 l-180 63 -8 58
c-29 230 -71 418 -132 593 -269 771 -881 1375 -1655 1631 -317 106 -629 147
-975 129z m420 -260 c965 -105 1791 -824 2030 -1769 14 -54 25 -104 25 -111 0
-6 -51 38 -114 99 -249 241 -513 425 -831 578 -418 201 -823 299 -1290 311
-551 14 -1029 -91 -1515 -334 -314 -157 -545 -320 -799 -567 l-103 -101 6 40
c3 22 19 88 36 145 128 449 400 870 750 1162 511 427 1145 619 1805 547z m92
-1034 c595 -74 1141 -309 1598 -688 77 -64 331 -313 345 -338 8 -14 2 -14 -53
-2 -251 53 -604 76 -835 54 -379 -35 -723 -171 -975 -384 l-66 -56 -108 -16
c-259 -38 -573 -112 -802 -190 -58 -19 -107 -33 -109 -30 -8 8 48 132 88 193
67 105 177 182 257 182 13 0 26 6 29 14 3 8 -56 285 -130 617 -75 331 -134
604 -133 605 2 2 173 -248 381 -556 l379 -559 45 37 c298 245 329 707 65 992
-35 38 -87 84 -114 101 -27 18 -49 34 -49 36 0 7 71 2 187 -12z m-1820 -398
c-302 -304 -505 -719 -611 -1247 -31 -156 -56 -359 -72 -594 -8 -116 -7 -116
-74 56 -57 145 -97 290 -127 458 -23 128 -26 173 -27 386 l-1 241 60 69 c188
218 457 446 700 595 59 36 245 138 252 139 2 0 -43 -46 -100 -103z m-1147
-1241 c47 -453 239 -917 537 -1305 37 -47 135 -154 217 -236 364 -364 791
-599 1286 -709 353 -78 775 -78 1130 0 503 111 971 375 1331 752 63 66 141
156 174 200 48 65 64 80 80 75 165 -45 827 -362 891 -427 9 -8 8 -40 -2 -126
-28 -227 -90 -483 -169 -697 -52 -140 -201 -439 -284 -568 -432 -676 -1102
-1155 -1873 -1340 -1325 -317 -2695 278 -3378 1468 -520 907 -530 2048 -26
2975 70 130 65 134 86 -62z m3067 -1099 c6 -283 276 -489 557 -423 135 32 249
125 309 253 25 55 32 83 35 154 l4 86 87 -14 c114 -18 358 -72 395 -87 l29
-12 -53 -64 c-81 -99 -234 -247 -345 -336 -387 -307 -848 -484 -1334 -513
-314 -18 -617 21 -902 118 -193 65 -456 191 -443 212 8 14 252 176 358 238
279 164 637 314 926 387 100 25 328 71 360 73 13 1 16 -13 17 -72z"/>
</g>
</svg>
