<svg style="display: none;" aria-hidden="true" xmlns="http://www.w3.org/2000/svg" xmlns:xlink="http://www.w3.org/1999/xlink"><symbol xml:space="preserve" shape-rendering="geometricPrecision" text-rendering="geometricPrecision" image-rendering="optimizeQuality" fill-rule="evenodd" clip-rule="evenodd" viewBox="0 0 512 298.04" id="svg-chevron-down" xmlns="http://www.w3.org/2000/svg"><path fill-rule="nonzero" d="M12.08 70.78c-16.17-16.24-16.09-42.54.15-58.7 16.25-16.17 42.54-16.09 58.71.15L256 197.76 441.06 12.23c16.17-16.24 42.46-16.32 58.71-.15 16.24 16.16 16.32 42.46.15 58.7L285.27 285.96c-16.24 16.17-42.54 16.09-58.7-.15L12.08 70.78z"/></symbol><symbol viewBox="0 0 24 24" fill="none" id="svg-telegram" xmlns="http://www.w3.org/2000/svg"><path d="M21 5 2 12.5l7 1M21 5l-2.5 15L9 13.5M21 5 9 13.5m0 0V19l3.249-3.277" stroke="currentColor" stroke-width="1.5" stroke-linecap="round" stroke-linejoin="round"/></symbol><symbol viewBox="0 0 100 100" id="svg-youtube" xmlns="http://www.w3.org/2000/svg"><path style="stroke:none;fill-rule:nonzero;fill:#fff;fill-opacity:1" d="M48.805 18c-13.203 0-25.602 1-32.203 2.398-4.399 1-8.204 4-9 8.602C6.805 33.797 6 41 6 50s.797 16 1.797 21c.805 4.398 4.601 7.602 9 8.602C23.805 81 35.797 82 49 82c13.203 0 25.195-1 32.195-2.398 4.407-1 8.203-4 9-8.602.805-5 1.805-12.195 2-21.195 0-9-1-16.203-2-21.203-.797-4.399-4.593-7.602-9-8.602-7-1-19.195-2-32.39-2Zm0 4c14.398 0 25.992 1.195 31.593 2.195 3 .805 5.399 2.805 5.797 5.407 1.203 6.398 2 13.203 2 20.203-.195 8.593-1.195 15.593-2 20.593-.593 3.797-4.593 5-5.797 5.407-7.203 1.398-19.203 2.39-31.203 2.39S25 77.398 18 75.805C15 75 12.602 73 12.203 70.398 10.602 64.797 10 57.398 10 50c0-9.203.805-16 1.602-20.195.601-3.805 4.796-5.008 5.796-5.407C24 23 36.203 22 48.805 22ZM38 34v32l28-16Zm4 6.805L58 50l-16 9.195Zm0 0"/></symbol></svg>