<svg style="display: none;" aria-hidden="true" xmlns="http://www.w3.org/2000/svg" xmlns:xlink="http://www.w3.org/1999/xlink"><symbol viewBox="0 0 24 24" fill="none" id="svg-telegram" xmlns="http://www.w3.org/2000/svg"><path d="M21 5 2 12.5l7 1M21 5l-2.5 15L9 13.5M21 5 9 13.5m0 0V19l3.249-3.277" stroke="currentColor" stroke-width="1.5" stroke-linecap="round" stroke-linejoin="round"/></symbol><symbol viewBox="0 0 49 49" style="enable-background:new 0 0 49 49" xml:space="preserve" id="svg-youtube" xmlns="http://www.w3.org/2000/svg"><path d="M39.256 6.5H9.744C4.371 6.5 0 10.885 0 16.274v16.451c0 5.39 4.371 9.774 9.744 9.774h29.512c5.373 0 9.744-4.385 9.744-9.774V16.274c0-5.389-4.371-9.774-9.744-9.774zM47 32.726c0 4.287-3.474 7.774-7.744 7.774H9.744C5.474 40.5 2 37.012 2 32.726V16.274C2 11.988 5.474 8.5 9.744 8.5h29.512c4.27 0 7.744 3.488 7.744 7.774v16.452z"/><path d="m33.36 24.138-13.855-8.115a1.002 1.002 0 0 0-1.505.863v16.229a1.002 1.002 0 0 0 1 1 1 1 0 0 0 .505-.137l13.855-8.113a1 1 0 0 0 0-1.727zM20 31.37V18.63l10.876 6.371L20 31.37z"/></symbol></svg>